# 3ds Max Wavefront OBJ Exporter v0.97b - (c)2007 guruware
# File Created: 05.02.2020 18:02:31

mtllib Artifact_tier5_epic_offensive.mtl

#
# object Artifact_tier5_epic_offensive
#

v  -0.6425 5.2594 -0.0000
v  0.0880 5.8055 -0.0000
v  -0.6278 4.7223 -0.4150
v  -2.1612 1.3583 -1.0408
v  -0.3573 4.1025 0.7255
v  0.7119 3.8631 0.7255
v  1.7539 2.9504 0.1510
v  -2.2380 1.7204 -0.2392
v  0.1199 1.7908 -1.6841
v  -2.5837 -1.1189 -0.1954
v  -0.7723 -0.7583 -1.6841
v  -1.8446 0.4666 0.7255
v  1.6576 1.9409 0.7255
v  -1.5232 1.5087 0.7255
v  0.6331 -3.5861 -0.0000
v  3.6502 -0.2009 -1.0408
v  2.0693 0.3120 0.7255
v  -0.7394 -0.8310 0.7255
v  1.3824 -1.0912 0.7255
# 19 vertices

vn -0.7180 0.6895 0.0951
vn 0.1872 0.9819 -0.0275
vn -0.2406 0.4758 -0.8460
vn -0.7603 0.1898 -0.6212
vn -0.2463 0.3576 0.9008
vn 0.3879 0.3067 0.8692
vn 0.8428 0.5380 -0.0148
vn -0.9422 0.2940 0.1605
vn 0.0912 0.3150 -0.9447
vn -0.8836 -0.4640 0.0621
vn -0.2426 -0.3231 -0.9147
vn -0.5331 -0.0044 0.8460
vn 0.5054 0.1526 0.8493
vn -0.4566 0.1626 0.8747
vn 0.1032 -0.9874 0.1198
vn 0.9352 -0.1218 -0.3326
vn 0.5117 -0.0350 0.8584
vn -0.2005 -0.2491 0.9475
vn 0.4194 -0.2952 0.8584
# 19 vertex normals

vt 0.9445 0.6194 0.0000
vt 0.9081 0.6809 0.0000
vt 0.9122 0.5798 0.0000
vt 0.9308 0.2979 0.0000
vt 0.6681 0.5642 0.0000
vt 0.6562 0.6391 0.0000
vt 0.5511 0.6422 0.0000
vt 0.5079 0.5779 0.0000
vt 0.6806 0.5730 0.0000
vt 0.9973 0.3226 0.0000
vt 0.7742 0.3845 0.0000
vt 0.4225 0.4989 0.0000
vt 0.9928 0.1308 0.0000
vt 0.7687 0.2046 0.0000
vt 0.3507 0.8441 0.0000
vt 0.4743 0.8723 0.0000
vt 0.3367 0.9995 0.0000
vt 0.3557 0.5640 0.0000
vt 0.4105 0.7948 0.0000
vt 0.6020 0.0005 0.0000
vt 0.1270 0.4300 0.0000
vt 0.2429 0.5827 0.0000
vt 0.4730 0.3446 0.0000
vt 0.2367 0.7985 0.0000
vt 0.0005 0.7675 0.0000
vt 0.1698 0.6616 0.0000
# 26 texture coords

o Artifact_tier5_epic_offensive
g Artifact_tier5_epic_offensive
usemtl Artifact_tier5_epic_offensive_mat
s 1
f 1/1/1 2/2/2 3/3/3 
s 2
f 1/1/1 3/3/3 4/4/4 
s 4
f 2/5/2 1/6/1 5/7/5 6/8/6 
s 8
f 2/2/2 7/9/7 3/3/3 
f 1/1/1 4/4/4 8/10/8 
s 4
f 3/3/3 9/11/9 4/4/4 
s 2
f 7/12/7 2/5/2 6/8/6 
s 1
f 8/10/8 4/4/4 10/13/10 
s 16
f 11/14/11 4/4/4 9/11/9 
s 32
f 7/9/7 9/11/9 3/3/3 
s 2
f 12/15/12 8/16/8 10/17/10 
s 32
f 4/4/4 11/14/11 10/13/10 
s 2
f 13/18/13 7/12/7 6/8/6 
s 16
f 5/7/5 1/6/1 14/19/14 
f 14/19/14 1/6/1 8/16/8 
s 4
f 10/13/10 11/14/11 15/20/15 
s 1
f 16/21/16 7/12/7 13/18/13 17/22/17 
s 32
f 16/23/16 9/11/9 7/9/7 
s 8
f 18/24/18 12/15/12 10/17/10 
f 15/25/15 18/24/18 10/17/10 
s 2
f 9/11/9 16/23/16 11/14/11 
s 64
f 15/20/15 11/14/11 16/23/16 
s 16
f 19/26/19 15/25/15 16/21/16 17/22/17 
s 1
f 15/25/15 19/26/19 18/24/18 
s 32
f 6/8/6 5/7/5 14/19/14 13/18/13 
s 16
f 8/16/8 12/15/12 14/19/14 
s 32
f 12/15/12 17/22/17 13/18/13 14/19/14 
f 18/24/18 19/26/19 17/22/17 12/15/12 
# 6 polygons - 22 triangles

