# 3ds Max Wavefront OBJ Exporter v0.97b - (c)2007 guruware
# File Created: 05.02.2020 18:02:35

mtllib Artifact_tier3_common_defensive.mtl

#
# object Artifact_tier3_common_defensive
#

v  -1.1642 -1.1715 1.1897
v  0.1085 0.7234 1.3881
v  -1.7346 0.2349 1.1343
v  0.6135 4.1427 0.0000
v  1.0190 3.7935 0.0000
v  0.2157 4.1411 -0.2766
v  0.1618 4.2919 -0.1911
v  -1.1572 3.3743 -0.4505
v  -0.6752 3.8813 -0.2638
v  -2.3666 2.1928 -0.2121
v  -2.3666 2.1928 -0.0054
v  -2.7459 0.8810 0.5554
v  -3.3023 -0.3146 0.2239
v  0.9424 3.3126 0.4605
v  -2.9673 -1.1715 0.3988
v  -0.2788 -2.6951 0.0624
v  1.2808 -1.1715 0.9365
v  1.6091 -2.2013 0.1735
v  0.8713 -0.6867 -1.0755
v  3.1226 -0.5622 -0.3404
v  3.2003 -1.0395 -0.0316
v  3.0873 -0.3043 0.3502
v  2.9949 0.7360 0.0551
v  1.7243 -0.7353 0.9675
v  -1.9919 1.0218 -1.0552
v  -1.7515 0.2844 -1.1301
v  -2.8987 0.4971 -0.4488
v  -2.6719 1.0890 -0.6125
v  -0.9228 2.1928 -1.1445
v  1.6486 3.1065 0.1332
v  -0.1596 -1.0785 -1.1076
v  -0.6118 -0.5365 -1.2831
v  -0.2350 -0.0161 -1.3427
v  -0.7919 2.1928 -1.1664
# 34 vertices

vn -0.2122 -0.4664 0.8588
vn 0.0806 0.2287 0.9702
vn -0.4377 0.1625 0.8843
vn 0.2789 0.9222 0.2680
vn 0.7325 0.6433 -0.2225
vn 0.2709 0.5694 -0.7761
vn -0.0841 0.9963 -0.0152
vn -0.5514 0.6800 -0.4833
vn -0.4766 0.8791 0.0083
vn -0.8179 0.5172 -0.2521
vn -0.7364 0.5666 0.3698
vn -0.7343 0.3875 0.5574
vn -0.9901 -0.1318 0.0480
vn 0.2206 0.5400 0.8122
vn -0.8066 -0.5547 0.2039
vn -0.0990 -0.9938 -0.0511
vn 0.2830 -0.5252 0.8025
vn 0.4234 -0.9043 0.0551
vn 0.3758 -0.2907 -0.8799
vn 0.7571 -0.0589 -0.6507
vn 0.8364 -0.5474 -0.0284
vn 0.8018 0.0256 0.5970
vn 0.8769 0.4793 -0.0373
vn 0.4886 -0.2643 0.8315
vn -0.5311 0.1568 -0.8327
vn -0.4410 -0.2063 -0.8735
vn -0.8754 -0.0501 -0.4808
vn -0.8369 0.2846 -0.4675
vn -0.3677 0.4055 -0.8369
vn 0.8397 0.5425 -0.0231
vn -0.0225 -0.6182 -0.7857
vn -0.2261 -0.4024 -0.8871
vn 0.1559 0.0275 -0.9874
vn 0.4673 0.3346 -0.8183
vn 0.0562 0.3382 -0.9394
# 35 vertex normals

vt 0.8317 0.2065 0.0000
vt 0.6923 0.2905 0.0000
vt 0.7316 0.1537 0.0000
vt 0.5923 0.8606 0.0000
vt 0.5561 0.8903 0.0000
vt 0.5907 0.8146 0.0000
vt 0.6047 0.8150 0.0000
vt 0.5533 0.6922 0.0000
vt 0.5942 0.7318 0.0000
vt 0.5011 0.5637 0.0000
vt 0.5165 0.5470 0.0000
vt 0.6778 0.0541 0.0000
vt 0.7952 0.0005 0.0000
vt 0.3924 0.2282 0.0000
vt 0.5309 0.0742 0.0000
vt 0.4812 0.3617 0.0000
vt 0.8750 0.0527 0.0000
vt 0.9987 0.2837 0.0000
vt 0.8297 0.3924 0.0000
vt 0.9368 0.4480 0.0000
vt 0.0005 0.7680 0.0000
vt 0.1927 0.7604 0.0000
vt 0.1218 0.9384 0.0000
vt 0.0603 0.9261 0.0000
vt 0.7619 0.5423 0.0000
vt 0.8221 0.5800 0.0000
vt 0.7748 0.6171 0.0000
vt 0.6698 0.5587 0.0000
vt 0.7945 0.4204 0.0000
vt 0.3770 0.5989 0.0000
vt 0.3216 0.6052 0.0000
vt 0.3671 0.4994 0.0000
vt 0.4028 0.5391 0.0000
vt 0.4331 0.7015 0.0000
vt 0.4213 0.3802 0.0000
vt 0.3978 0.3423 0.0000
vt 0.4801 0.4325 0.0000
vt 0.1972 0.6791 0.0000
vt 0.2430 0.6671 0.0000
vt 0.2639 0.7008 0.0000
vt 0.4787 0.9475 0.0000
vt 0.2462 0.9995 0.0000
vt 0.4282 0.6998 0.0000
vt 0.4299 0.7048 0.0000
vt 0.4599 0.4188 0.0000
vt 0.2288 0.3950 0.0000
vt 0.3295 0.4024 0.0000
vt 0.0378 0.5911 0.0000
vt 0.3734 0.3030 0.0000
# 49 texture coords

o Artifact_tier3_common_defensive
g Artifact_tier3_common_defensive
usemtl Artifact_tier3_common_defensive_mat
s 1
f 1/1/1 2/2/2 3/3/3 
f 4/4/4 5/5/5 6/6/6 7/7/7 
s 2
f 6/6/6 8/8/8 9/9/9 7/7/7 
s 1
f 8/8/8 10/10/10 11/11/11 9/9/9 
s 2
f 12/12/12 13/13/13 3/3/3 
s 4
f 9/14/9 11/15/11 2/2/2 14/16/14 
s 2
f 1/1/1 15/17/15 16/18/16 
s 4
f 17/19/17 1/1/1 16/18/16 18/20/18 
s 1
f 18/21/18 19/22/19 20/23/20 21/24/21 
s 2
f 22/25/22 21/26/21 20/27/20 23/28/23 
s 8
f 2/2/2 1/1/1 17/19/17 24/29/24 
s 16
f 18/20/18 21/26/21 22/25/22 17/19/17 
f 24/29/24 17/19/17 22/25/22 
s 1
f 25/30/25 26/31/26 27/32/27 28/33/28 
s 4
f 10/10/10 8/8/8 29/34/29 
s 2
f 5/35/5 4/36/4 14/16/14 30/37/30 
s 32
f 24/29/24 22/25/22 23/28/23 2/2/2 
s 2
f 31/38/31 32/39/32 33/40/33 19/22/19 
s 4
f 30/41/30 23/42/23 33/40/33 34/43/34 
f 33/40/33 34/44/35 34/43/34 
s 8
f 11/11/11 10/10/10 28/33/28 12/45/12 
f 25/30/25 33/40/33 32/39/32 26/31/26 
s 4
f 26/31/26 15/46/15 13/47/13 27/32/27 
s 16
f 26/31/26 32/39/32 15/46/15 
s 8
f 25/30/25 29/34/29 34/44/35 33/40/33 
s 1
f 32/39/32 31/38/31 16/48/16 15/46/15 
s 4
f 11/15/11 12/12/12 3/3/3 2/2/2 
f 9/14/9 14/16/14 4/36/4 7/49/7 
s 32
f 23/28/23 30/37/30 14/16/14 2/2/2 
s 4
f 5/5/5 34/43/34 34/44/35 6/6/6 
s 16
f 23/42/23 20/23/20 19/22/19 33/40/33 
s 4
f 10/10/10 29/34/29 25/30/25 28/33/28 
s 16
f 27/32/27 13/47/13 12/45/12 28/33/28 
s 32
f 15/17/15 1/1/1 3/3/3 13/13/13 
s 8
f 18/21/18 16/48/16 31/38/31 19/22/19 
s 4
f 5/5/5 30/41/30 34/43/34 
s 2
f 6/6/6 34/44/35 29/34/29 8/8/8 
# 29 polygons - 8 triangles

